<mxfile host="app.diagrams.net" modified="2022-10-26T11:06:53.114Z" agent="5.0 (Macintosh; Intel Mac OS X 10_15_7) AppleWebKit/537.36 (KHTML, like Gecko) Chrome/106.0.0.0 Safari/537.36" etag="X3zP0xVs-aViWfhAADzI" version="20.4.1" type="github">
  <diagram id="rFfVL89SZqLf6waMyosn" name="第 1 页">
    <mxGraphModel dx="1446" dy="1025" grid="1" gridSize="20" guides="1" tooltips="1" connect="1" arrows="1" fold="1" page="1" pageScale="1" pageWidth="3000" pageHeight="3000" math="0" shadow="0">
      <root>
        <mxCell id="0" />
        <mxCell id="1" parent="0" />
        <mxCell id="6ellRIqbGZI2gtahciG1-1" value="&lt;meta charset=&quot;utf-8&quot;&gt;&lt;b id=&quot;docs-internal-guid-9c5a6fa5-7fff-c8df-90ff-69561f501aed&quot; style=&quot;font-weight:normal;&quot;&gt;&lt;p style=&quot;line-height:1.2;text-align: center;margin-top:0pt;margin-bottom:0pt;&quot; dir=&quot;ltr&quot;&gt;&lt;span style=&quot;font-size: 12pt; font-family: &amp;quot;Noto Sans SC&amp;quot;, sans-serif; color: rgb(255, 255, 255); background-color: transparent; font-weight: 400; font-style: normal; font-variant: normal; text-decoration: none; vertical-align: baseline;&quot;&gt;司机载客合约&lt;/span&gt;&lt;/p&gt;&lt;/b&gt;&lt;br class=&quot;Apple-interchange-newline&quot;&gt;" style="text;whiteSpace=wrap;html=1;rounded=1;" vertex="1" parent="1">
          <mxGeometry x="400" y="220" width="130" height="60" as="geometry" />
        </mxCell>
        <mxCell id="6ellRIqbGZI2gtahciG1-3" value="&lt;meta charset=&quot;utf-8&quot;&gt;&lt;b id=&quot;docs-internal-guid-0b4b1522-7fff-7697-f74d-96f31f96c330&quot; style=&quot;font-weight:normal;&quot;&gt;&lt;img src=&quot;https://lh4.googleusercontent.com/3eBulye5d3qW4a5E_yglElCPFwP__0ryDn_5Ogho8EtqHSCziot9mixDJlytxIU4yxRzTl6_hMovFfggK5KzCyPXZIklHfitlrSJq7K0fbLIkfurtD2D_KOJrxaEaDc1nyPxNTucHoS5Wxv6oeDa_iH68CFSBGD9P-37SkEZ3d5AlBZwpGWQnGRcMtHK&quot; height=&quot;360px;&quot; width=&quot;655px;&quot;&gt;&lt;/b&gt;" style="text;whiteSpace=wrap;html=1;rounded=1;" vertex="1" parent="1">
          <mxGeometry x="80" width="560" height="390" as="geometry" />
        </mxCell>
        <mxCell id="6ellRIqbGZI2gtahciG1-17" value="" style="edgeStyle=orthogonalEdgeStyle;rounded=1;orthogonalLoop=1;jettySize=auto;html=1;fontSize=12;fontColor=#FFFFFF;fillColor=#60a917;strokeColor=#2D7600;" edge="1" parent="1" source="6ellRIqbGZI2gtahciG1-4" target="6ellRIqbGZI2gtahciG1-5">
          <mxGeometry relative="1" as="geometry" />
        </mxCell>
        <mxCell id="6ellRIqbGZI2gtahciG1-4" value="&amp;lt;Party&amp;gt;&lt;br&gt;&lt;br&gt;乘客" style="rounded=1;whiteSpace=wrap;html=1;fillColor=#60a917;fontColor=#ffffff;strokeColor=none;" vertex="1" parent="1">
          <mxGeometry x="545" y="1280" width="70" height="60" as="geometry" />
        </mxCell>
        <mxCell id="6ellRIqbGZI2gtahciG1-5" value="&amp;lt;Contract&amp;gt;&lt;br&gt;&lt;br&gt;&lt;span id=&quot;docs-internal-guid-30c552a8-7fff-c146-13df-889dcf74978a&quot;&gt;&lt;span style=&quot;font-family: &amp;quot;Noto Sans SC&amp;quot;, sans-serif; background-color: transparent; font-variant-numeric: normal; font-variant-east-asian: normal; vertical-align: baseline;&quot;&gt;&lt;font style=&quot;font-size: 12px;&quot;&gt;乘客打车合约&lt;br&gt;&lt;/font&gt;&lt;/span&gt;&lt;/span&gt;" style="rounded=1;whiteSpace=wrap;html=1;fillColor=#d80073;fontColor=#ffffff;strokeColor=none;arcSize=12;" vertex="1" parent="1">
          <mxGeometry x="520" y="1140" width="120" height="60" as="geometry" />
        </mxCell>
        <mxCell id="6ellRIqbGZI2gtahciG1-8" value="" style="endArrow=none;html=1;rounded=1;fontColor=#FFFFFF;startArrow=none;" edge="1" parent="1" source="6ellRIqbGZI2gtahciG1-6">
          <mxGeometry width="50" height="50" relative="1" as="geometry">
            <mxPoint x="150" y="440" as="sourcePoint" />
            <mxPoint x="200" y="390" as="targetPoint" />
          </mxGeometry>
        </mxCell>
        <mxCell id="6ellRIqbGZI2gtahciG1-90" value="" style="edgeStyle=orthogonalEdgeStyle;rounded=1;orthogonalLoop=1;jettySize=auto;html=1;fontSize=12;fontColor=#FFFFFF;" edge="1" parent="1" source="6ellRIqbGZI2gtahciG1-20" target="6ellRIqbGZI2gtahciG1-5">
          <mxGeometry relative="1" as="geometry" />
        </mxCell>
        <mxCell id="6ellRIqbGZI2gtahciG1-20" value="&amp;lt;Proposal&amp;gt;&lt;br&gt;&lt;br&gt;&lt;span id=&quot;docs-internal-guid-30c552a8-7fff-c146-13df-889dcf74978a&quot;&gt;&lt;span style=&quot;font-family: &amp;quot;Noto Sans SC&amp;quot;, sans-serif; background-color: transparent; font-variant-numeric: normal; font-variant-east-asian: normal; vertical-align: baseline;&quot;&gt;&lt;font style=&quot;font-size: 12px;&quot;&gt;打车方案报价方案&lt;br&gt;&lt;/font&gt;&lt;/span&gt;&lt;/span&gt;" style="rounded=1;whiteSpace=wrap;html=1;fillColor=#d80073;fontColor=#ffffff;strokeColor=none;" vertex="1" parent="1">
          <mxGeometry x="340" y="1140" width="120" height="60" as="geometry" />
        </mxCell>
        <mxCell id="6ellRIqbGZI2gtahciG1-89" value="" style="edgeStyle=orthogonalEdgeStyle;rounded=1;orthogonalLoop=1;jettySize=auto;html=1;fontSize=12;fontColor=#FFFFFF;" edge="1" parent="1" source="6ellRIqbGZI2gtahciG1-21" target="6ellRIqbGZI2gtahciG1-20">
          <mxGeometry relative="1" as="geometry" />
        </mxCell>
        <mxCell id="6ellRIqbGZI2gtahciG1-21" value="&amp;lt;rfp&amp;gt;&lt;br&gt;&lt;br&gt;&lt;span id=&quot;docs-internal-guid-30c552a8-7fff-c146-13df-889dcf74978a&quot;&gt;&lt;span style=&quot;font-family: &amp;quot;Noto Sans SC&amp;quot;, sans-serif; background-color: transparent; font-variant-numeric: normal; font-variant-east-asian: normal; vertical-align: baseline;&quot;&gt;&lt;font style=&quot;font-size: 12px;&quot;&gt;打车方案报价&lt;br&gt;&lt;/font&gt;&lt;/span&gt;&lt;/span&gt;" style="rounded=1;whiteSpace=wrap;html=1;fillColor=#d80073;fontColor=#ffffff;strokeColor=none;" vertex="1" parent="1">
          <mxGeometry x="180" y="1140" width="100" height="60" as="geometry" />
        </mxCell>
        <mxCell id="6ellRIqbGZI2gtahciG1-26" value="&amp;lt;Fulfillment&amp;gt;&lt;br&gt;&lt;br&gt;&lt;span id=&quot;docs-internal-guid-30c552a8-7fff-c146-13df-889dcf74978a&quot;&gt;&lt;span style=&quot;font-family: &amp;quot;Noto Sans SC&amp;quot;, sans-serif; background-color: transparent; font-variant-numeric: normal; font-variant-east-asian: normal; vertical-align: baseline;&quot;&gt;&lt;font style=&quot;font-size: 12px;&quot;&gt;打车请求&lt;br&gt;created_at&lt;br&gt;expired_at&lt;br&gt;&lt;/font&gt;&lt;/span&gt;&lt;/span&gt;" style="rounded=1;whiteSpace=wrap;html=1;fillColor=#d80073;fontColor=#ffffff;strokeColor=none;" vertex="1" parent="1">
          <mxGeometry x="750" y="985" width="90" height="90" as="geometry" />
        </mxCell>
        <mxCell id="6ellRIqbGZI2gtahciG1-27" value="&amp;lt;evidence&amp;gt;&lt;br&gt;&lt;br&gt;&lt;span id=&quot;docs-internal-guid-30c552a8-7fff-c146-13df-889dcf74978a&quot;&gt;&lt;span style=&quot;font-family: &amp;quot;Noto Sans SC&amp;quot;, sans-serif; background-color: transparent; font-variant-numeric: normal; font-variant-east-asian: normal; vertical-align: baseline;&quot;&gt;&lt;font style=&quot;font-size: 12px;&quot;&gt;匹配网约车确认&lt;br&gt;created_at&lt;br&gt;expired_at&lt;br&gt;&lt;/font&gt;&lt;/span&gt;&lt;/span&gt;" style="rounded=1;whiteSpace=wrap;html=1;fillColor=#d80073;fontColor=#ffffff;strokeColor=none;" vertex="1" parent="1">
          <mxGeometry x="930" y="985" width="110" height="90" as="geometry" />
        </mxCell>
        <mxCell id="6ellRIqbGZI2gtahciG1-6" value="&amp;lt;Party&amp;gt;&lt;br&gt;&lt;br&gt;App User" style="rounded=1;whiteSpace=wrap;html=1;fillColor=#f0a30a;fontColor=#FFFFFF;strokeColor=none;" vertex="1" parent="1">
          <mxGeometry x="90" y="390" width="120" height="60" as="geometry" />
        </mxCell>
        <mxCell id="6ellRIqbGZI2gtahciG1-29" value="" style="endArrow=none;html=1;rounded=1;fontColor=#FFFFFF;" edge="1" parent="1" target="6ellRIqbGZI2gtahciG1-6">
          <mxGeometry width="50" height="50" relative="1" as="geometry">
            <mxPoint x="150" y="440" as="sourcePoint" />
            <mxPoint x="200" y="390" as="targetPoint" />
          </mxGeometry>
        </mxCell>
        <mxCell id="6ellRIqbGZI2gtahciG1-32" value="" style="line;strokeWidth=2;html=1;rounded=1;fontSize=12;fontColor=#FFFFFF;fillColor=#589C15;" vertex="1" parent="1">
          <mxGeometry x="840" y="1025" width="90" height="10" as="geometry" />
        </mxCell>
        <mxCell id="6ellRIqbGZI2gtahciG1-33" value="&lt;font color=&quot;#000000&quot;&gt;1&lt;/font&gt;" style="text;html=1;align=center;verticalAlign=middle;resizable=0;points=[];autosize=1;strokeColor=none;fillColor=none;fontSize=12;fontColor=#FFFFFF;" vertex="1" parent="1">
          <mxGeometry x="845" y="1005" width="30" height="30" as="geometry" />
        </mxCell>
        <mxCell id="6ellRIqbGZI2gtahciG1-35" value="&lt;font color=&quot;#000000&quot;&gt;1&lt;/font&gt;" style="text;html=1;align=center;verticalAlign=middle;resizable=0;points=[];autosize=1;strokeColor=none;fillColor=none;fontSize=12;fontColor=#FFFFFF;" vertex="1" parent="1">
          <mxGeometry x="890" y="1005" width="30" height="30" as="geometry" />
        </mxCell>
        <mxCell id="6ellRIqbGZI2gtahciG1-36" value="&amp;lt;Fulfillment&amp;gt;&lt;br&gt;&lt;br&gt;&lt;span id=&quot;docs-internal-guid-30c552a8-7fff-c146-13df-889dcf74978a&quot;&gt;&lt;span style=&quot;font-family: &amp;quot;Noto Sans SC&amp;quot;, sans-serif; background-color: transparent; font-variant-numeric: normal; font-variant-east-asian: normal; vertical-align: baseline;&quot;&gt;&lt;font style=&quot;font-size: 12px;&quot;&gt;取消打车请求&lt;br&gt;created_at&lt;br&gt;expired_at&lt;br&gt;&lt;/font&gt;&lt;/span&gt;&lt;/span&gt;" style="rounded=1;whiteSpace=wrap;html=1;fillColor=#d80073;fontColor=#ffffff;strokeColor=none;" vertex="1" parent="1">
          <mxGeometry x="750" y="860" width="100" height="90" as="geometry" />
        </mxCell>
        <mxCell id="6ellRIqbGZI2gtahciG1-37" value="&amp;lt;evidence&amp;gt;&lt;br&gt;&lt;br&gt;&lt;span id=&quot;docs-internal-guid-30c552a8-7fff-c146-13df-889dcf74978a&quot;&gt;&lt;span style=&quot;font-family: &amp;quot;Noto Sans SC&amp;quot;, sans-serif; background-color: transparent; font-variant-numeric: normal; font-variant-east-asian: normal; vertical-align: baseline;&quot;&gt;&lt;font style=&quot;font-size: 12px;&quot;&gt;取消匹配网约车确认&lt;br&gt;created_at&lt;br&gt;expired_at&lt;br&gt;&lt;/font&gt;&lt;/span&gt;&lt;/span&gt;" style="rounded=1;whiteSpace=wrap;html=1;fillColor=#d80073;fontColor=#ffffff;strokeColor=none;" vertex="1" parent="1">
          <mxGeometry x="930" y="860" width="120" height="90" as="geometry" />
        </mxCell>
        <mxCell id="6ellRIqbGZI2gtahciG1-38" value="" style="line;strokeWidth=2;html=1;rounded=1;fontSize=12;fontColor=#FFFFFF;fillColor=#589C15;" vertex="1" parent="1">
          <mxGeometry x="850" y="900" width="80" height="10" as="geometry" />
        </mxCell>
        <mxCell id="6ellRIqbGZI2gtahciG1-39" value="&lt;font color=&quot;#000000&quot;&gt;1&lt;/font&gt;" style="text;html=1;align=center;verticalAlign=middle;resizable=0;points=[];autosize=1;strokeColor=none;fillColor=none;fontSize=12;fontColor=#FFFFFF;" vertex="1" parent="1">
          <mxGeometry x="845" y="880" width="30" height="30" as="geometry" />
        </mxCell>
        <mxCell id="6ellRIqbGZI2gtahciG1-40" value="&lt;font color=&quot;#000000&quot;&gt;1&lt;/font&gt;" style="text;html=1;align=center;verticalAlign=middle;resizable=0;points=[];autosize=1;strokeColor=none;fillColor=none;fontSize=12;fontColor=#FFFFFF;" vertex="1" parent="1">
          <mxGeometry x="890" y="880" width="30" height="30" as="geometry" />
        </mxCell>
        <mxCell id="6ellRIqbGZI2gtahciG1-41" value="RIDER" style="rounded=1;whiteSpace=wrap;html=1;fontSize=12;fontColor=#FFFFFF;fillColor=#f0a30a;strokeColor=none;" vertex="1" parent="1">
          <mxGeometry x="800" y="940" width="70" height="30" as="geometry" />
        </mxCell>
        <mxCell id="6ellRIqbGZI2gtahciG1-45" value="RIDER" style="rounded=1;whiteSpace=wrap;html=1;fontSize=12;fontColor=#FFFFFF;fillColor=#f0a30a;strokeColor=none;" vertex="1" parent="1">
          <mxGeometry x="1010" y="940" width="70" height="30" as="geometry" />
        </mxCell>
        <mxCell id="6ellRIqbGZI2gtahciG1-46" value="RIDER" style="rounded=1;whiteSpace=wrap;html=1;fontSize=12;fontColor=#FFFFFF;fillColor=#f0a30a;strokeColor=none;" vertex="1" parent="1">
          <mxGeometry x="800" y="1070" width="70" height="30" as="geometry" />
        </mxCell>
        <mxCell id="6ellRIqbGZI2gtahciG1-47" value="RIDER" style="rounded=1;whiteSpace=wrap;html=1;fontSize=12;fontColor=#FFFFFF;fillColor=#f0a30a;strokeColor=none;" vertex="1" parent="1">
          <mxGeometry x="1010" y="1070" width="70" height="30" as="geometry" />
        </mxCell>
        <mxCell id="6ellRIqbGZI2gtahciG1-48" value="&amp;lt;Fulfillment&amp;gt;&lt;br&gt;&lt;br&gt;&lt;span id=&quot;docs-internal-guid-30c552a8-7fff-c146-13df-889dcf74978a&quot;&gt;&lt;span style=&quot;font-family: &amp;quot;Noto Sans SC&amp;quot;, sans-serif; background-color: transparent; font-variant-numeric: normal; font-variant-east-asian: normal; vertical-align: baseline;&quot;&gt;&lt;font style=&quot;font-size: 12px;&quot;&gt;使用优惠券请求&lt;br&gt;created_at&lt;br&gt;expired_at&lt;br&gt;&lt;/font&gt;&lt;/span&gt;&lt;/span&gt;" style="rounded=1;whiteSpace=wrap;html=1;fillColor=#d80073;fontColor=#ffffff;strokeColor=none;" vertex="1" parent="1">
          <mxGeometry x="750" y="1127.5" width="90" height="90" as="geometry" />
        </mxCell>
        <mxCell id="6ellRIqbGZI2gtahciG1-49" value="&amp;lt;evidence&amp;gt;&lt;br&gt;&lt;br&gt;&lt;span id=&quot;docs-internal-guid-30c552a8-7fff-c146-13df-889dcf74978a&quot;&gt;&lt;span style=&quot;font-family: &amp;quot;Noto Sans SC&amp;quot;, sans-serif; background-color: transparent; font-variant-numeric: normal; font-variant-east-asian: normal; vertical-align: baseline;&quot;&gt;&lt;font style=&quot;font-size: 12px;&quot;&gt;使用优惠券确认&lt;br&gt;created_at&lt;br&gt;expired_at&lt;br&gt;&lt;/font&gt;&lt;/span&gt;&lt;/span&gt;" style="rounded=1;whiteSpace=wrap;html=1;fillColor=#d80073;fontColor=#ffffff;strokeColor=none;" vertex="1" parent="1">
          <mxGeometry x="930" y="1127.5" width="110" height="90" as="geometry" />
        </mxCell>
        <mxCell id="6ellRIqbGZI2gtahciG1-50" value="" style="line;strokeWidth=2;html=1;rounded=1;fontSize=12;fontColor=#FFFFFF;fillColor=#589C15;" vertex="1" parent="1">
          <mxGeometry x="840" y="1167.5" width="90" height="10" as="geometry" />
        </mxCell>
        <mxCell id="6ellRIqbGZI2gtahciG1-51" value="&lt;font color=&quot;#000000&quot;&gt;1&lt;/font&gt;" style="text;html=1;align=center;verticalAlign=middle;resizable=0;points=[];autosize=1;strokeColor=none;fillColor=none;fontSize=12;fontColor=#FFFFFF;" vertex="1" parent="1">
          <mxGeometry x="845" y="1147.5" width="30" height="30" as="geometry" />
        </mxCell>
        <mxCell id="6ellRIqbGZI2gtahciG1-52" value="&lt;font color=&quot;#000000&quot;&gt;1&lt;/font&gt;" style="text;html=1;align=center;verticalAlign=middle;resizable=0;points=[];autosize=1;strokeColor=none;fillColor=none;fontSize=12;fontColor=#FFFFFF;" vertex="1" parent="1">
          <mxGeometry x="890" y="1147.5" width="30" height="30" as="geometry" />
        </mxCell>
        <mxCell id="6ellRIqbGZI2gtahciG1-53" value="RIDER" style="rounded=1;whiteSpace=wrap;html=1;fontSize=12;fontColor=#FFFFFF;fillColor=#f0a30a;strokeColor=none;" vertex="1" parent="1">
          <mxGeometry x="800" y="1212.5" width="70" height="30" as="geometry" />
        </mxCell>
        <mxCell id="6ellRIqbGZI2gtahciG1-54" value="RIDER" style="rounded=1;whiteSpace=wrap;html=1;fontSize=12;fontColor=#FFFFFF;fillColor=#f0a30a;strokeColor=none;" vertex="1" parent="1">
          <mxGeometry x="1010" y="1212.5" width="70" height="30" as="geometry" />
        </mxCell>
        <mxCell id="6ellRIqbGZI2gtahciG1-57" value="&amp;lt;Fulfillment&amp;gt;&lt;br&gt;&lt;br&gt;&lt;span id=&quot;docs-internal-guid-30c552a8-7fff-c146-13df-889dcf74978a&quot;&gt;&lt;span style=&quot;font-family: &amp;quot;Noto Sans SC&amp;quot;, sans-serif; background-color: transparent; font-variant-numeric: normal; font-variant-east-asian: normal; vertical-align: baseline;&quot;&gt;&lt;font style=&quot;font-size: 12px;&quot;&gt;支付请求&lt;br&gt;created_at&lt;br&gt;expired_at&lt;br&gt;&lt;/font&gt;&lt;/span&gt;&lt;/span&gt;" style="rounded=1;whiteSpace=wrap;html=1;fillColor=#d80073;fontColor=#ffffff;strokeColor=none;" vertex="1" parent="1">
          <mxGeometry x="750" y="1260" width="90" height="90" as="geometry" />
        </mxCell>
        <mxCell id="6ellRIqbGZI2gtahciG1-58" value="&amp;lt;evidence&amp;gt;&lt;br&gt;&lt;br&gt;&lt;span id=&quot;docs-internal-guid-30c552a8-7fff-c146-13df-889dcf74978a&quot;&gt;&lt;span style=&quot;font-family: &amp;quot;Noto Sans SC&amp;quot;, sans-serif; background-color: transparent; font-variant-numeric: normal; font-variant-east-asian: normal; vertical-align: baseline;&quot;&gt;&lt;font style=&quot;font-size: 12px;&quot;&gt;支付确认确认&lt;br&gt;created_at&lt;br&gt;expired_at&lt;br&gt;&lt;/font&gt;&lt;/span&gt;&lt;/span&gt;" style="rounded=1;whiteSpace=wrap;html=1;fillColor=#d80073;fontColor=#ffffff;strokeColor=none;" vertex="1" parent="1">
          <mxGeometry x="930" y="1260" width="110" height="90" as="geometry" />
        </mxCell>
        <mxCell id="6ellRIqbGZI2gtahciG1-59" value="" style="line;strokeWidth=2;html=1;rounded=1;fontSize=12;fontColor=#FFFFFF;fillColor=#589C15;" vertex="1" parent="1">
          <mxGeometry x="840" y="1300" width="90" height="10" as="geometry" />
        </mxCell>
        <mxCell id="6ellRIqbGZI2gtahciG1-60" value="&lt;font color=&quot;#000000&quot;&gt;1&lt;/font&gt;" style="text;html=1;align=center;verticalAlign=middle;resizable=0;points=[];autosize=1;strokeColor=none;fillColor=none;fontSize=12;fontColor=#FFFFFF;" vertex="1" parent="1">
          <mxGeometry x="845" y="1280" width="30" height="30" as="geometry" />
        </mxCell>
        <mxCell id="6ellRIqbGZI2gtahciG1-61" value="&lt;font color=&quot;#000000&quot;&gt;1&lt;/font&gt;" style="text;html=1;align=center;verticalAlign=middle;resizable=0;points=[];autosize=1;strokeColor=none;fillColor=none;fontSize=12;fontColor=#FFFFFF;" vertex="1" parent="1">
          <mxGeometry x="890" y="1280" width="30" height="30" as="geometry" />
        </mxCell>
        <mxCell id="6ellRIqbGZI2gtahciG1-62" value="RIDER" style="rounded=1;whiteSpace=wrap;html=1;fontSize=12;fontColor=#FFFFFF;fillColor=#f0a30a;strokeColor=none;" vertex="1" parent="1">
          <mxGeometry x="800" y="1345" width="70" height="30" as="geometry" />
        </mxCell>
        <mxCell id="6ellRIqbGZI2gtahciG1-69" value="RIDER" style="rounded=1;whiteSpace=wrap;html=1;fontSize=12;fontColor=#FFFFFF;fillColor=#f0a30a;strokeColor=none;" vertex="1" parent="1">
          <mxGeometry x="1010" y="1345" width="70" height="30" as="geometry" />
        </mxCell>
        <mxCell id="6ellRIqbGZI2gtahciG1-76" value="&amp;lt;Fulfillment&amp;gt;&lt;br&gt;&lt;br&gt;&lt;span id=&quot;docs-internal-guid-30c552a8-7fff-c146-13df-889dcf74978a&quot;&gt;&lt;span style=&quot;font-family: &amp;quot;Noto Sans SC&amp;quot;, sans-serif; background-color: transparent; font-variant-numeric: normal; font-variant-east-asian: normal; vertical-align: baseline;&quot;&gt;&lt;font style=&quot;font-size: 12px;&quot;&gt;开发票请求&lt;br&gt;created_at&lt;br&gt;expired_at&lt;br&gt;&lt;/font&gt;&lt;/span&gt;&lt;/span&gt;" style="rounded=1;whiteSpace=wrap;html=1;fillColor=#d80073;fontColor=#ffffff;strokeColor=none;" vertex="1" parent="1">
          <mxGeometry x="750" y="1410" width="90" height="90" as="geometry" />
        </mxCell>
        <mxCell id="6ellRIqbGZI2gtahciG1-77" value="&amp;lt;evidence&amp;gt;&lt;br&gt;&lt;br&gt;&lt;span id=&quot;docs-internal-guid-30c552a8-7fff-c146-13df-889dcf74978a&quot;&gt;&lt;span style=&quot;font-family: &amp;quot;Noto Sans SC&amp;quot;, sans-serif; background-color: transparent; font-variant-numeric: normal; font-variant-east-asian: normal; vertical-align: baseline;&quot;&gt;&lt;font style=&quot;font-size: 12px;&quot;&gt;开发票确认&lt;br&gt;created_at&lt;br&gt;expired_at&lt;br&gt;&lt;/font&gt;&lt;/span&gt;&lt;/span&gt;" style="rounded=1;whiteSpace=wrap;html=1;fillColor=#d80073;fontColor=#ffffff;strokeColor=none;" vertex="1" parent="1">
          <mxGeometry x="930" y="1410" width="110" height="90" as="geometry" />
        </mxCell>
        <mxCell id="6ellRIqbGZI2gtahciG1-78" value="" style="line;strokeWidth=2;html=1;rounded=1;fontSize=12;fontColor=#FFFFFF;fillColor=#589C15;" vertex="1" parent="1">
          <mxGeometry x="840" y="1450" width="90" height="10" as="geometry" />
        </mxCell>
        <mxCell id="6ellRIqbGZI2gtahciG1-79" value="&lt;font color=&quot;#000000&quot;&gt;1&lt;/font&gt;" style="text;html=1;align=center;verticalAlign=middle;resizable=0;points=[];autosize=1;strokeColor=none;fillColor=none;fontSize=12;fontColor=#FFFFFF;" vertex="1" parent="1">
          <mxGeometry x="845" y="1430" width="30" height="30" as="geometry" />
        </mxCell>
        <mxCell id="6ellRIqbGZI2gtahciG1-80" value="&lt;font color=&quot;#000000&quot;&gt;1&lt;/font&gt;" style="text;html=1;align=center;verticalAlign=middle;resizable=0;points=[];autosize=1;strokeColor=none;fillColor=none;fontSize=12;fontColor=#FFFFFF;" vertex="1" parent="1">
          <mxGeometry x="890" y="1430" width="30" height="30" as="geometry" />
        </mxCell>
        <mxCell id="6ellRIqbGZI2gtahciG1-81" value="RIDER" style="rounded=1;whiteSpace=wrap;html=1;fontSize=12;fontColor=#FFFFFF;fillColor=#f0a30a;strokeColor=none;" vertex="1" parent="1">
          <mxGeometry x="800" y="1495" width="70" height="30" as="geometry" />
        </mxCell>
        <mxCell id="6ellRIqbGZI2gtahciG1-82" value="RIDER" style="rounded=1;whiteSpace=wrap;html=1;fontSize=12;fontColor=#FFFFFF;fillColor=#f0a30a;strokeColor=none;" vertex="1" parent="1">
          <mxGeometry x="1010" y="1495" width="70" height="30" as="geometry" />
        </mxCell>
        <mxCell id="6ellRIqbGZI2gtahciG1-83" value="" style="endArrow=none;html=1;rounded=1;fontSize=12;fontColor=#FFFFFF;entryX=1;entryY=0.5;entryDx=0;entryDy=0;exitX=0;exitY=0.5;exitDx=0;exitDy=0;" edge="1" parent="1" source="6ellRIqbGZI2gtahciG1-48" target="6ellRIqbGZI2gtahciG1-5">
          <mxGeometry width="50" height="50" relative="1" as="geometry">
            <mxPoint x="530" y="1290" as="sourcePoint" />
            <mxPoint x="580" y="1240" as="targetPoint" />
          </mxGeometry>
        </mxCell>
        <mxCell id="6ellRIqbGZI2gtahciG1-84" value="" style="endArrow=none;html=1;rounded=1;fontSize=12;fontColor=#FFFFFF;entryX=1;entryY=0.5;entryDx=0;entryDy=0;exitX=0;exitY=0.5;exitDx=0;exitDy=0;" edge="1" parent="1" target="6ellRIqbGZI2gtahciG1-5">
          <mxGeometry width="50" height="50" relative="1" as="geometry">
            <mxPoint x="750" y="937.5" as="sourcePoint" />
            <mxPoint x="610" y="940" as="targetPoint" />
          </mxGeometry>
        </mxCell>
        <mxCell id="6ellRIqbGZI2gtahciG1-86" value="" style="endArrow=none;html=1;rounded=1;fontSize=12;fontColor=#FFFFFF;entryX=1;entryY=0.5;entryDx=0;entryDy=0;exitX=0;exitY=0.5;exitDx=0;exitDy=0;" edge="1" parent="1" target="6ellRIqbGZI2gtahciG1-5">
          <mxGeometry width="50" height="50" relative="1" as="geometry">
            <mxPoint x="750" y="1020" as="sourcePoint" />
            <mxPoint x="610" y="1257.5" as="targetPoint" />
          </mxGeometry>
        </mxCell>
        <mxCell id="6ellRIqbGZI2gtahciG1-87" value="" style="endArrow=none;html=1;rounded=1;fontSize=12;fontColor=#FFFFFF;exitX=0;exitY=0.5;exitDx=0;exitDy=0;" edge="1" parent="1" source="6ellRIqbGZI2gtahciG1-57">
          <mxGeometry width="50" height="50" relative="1" as="geometry">
            <mxPoint x="740" y="1307.5" as="sourcePoint" />
            <mxPoint x="640" y="1180" as="targetPoint" />
          </mxGeometry>
        </mxCell>
        <mxCell id="6ellRIqbGZI2gtahciG1-88" value="" style="endArrow=none;html=1;rounded=1;fontSize=12;fontColor=#FFFFFF;exitX=0;exitY=0.5;exitDx=0;exitDy=0;entryX=1;entryY=0.5;entryDx=0;entryDy=0;" edge="1" parent="1" target="6ellRIqbGZI2gtahciG1-5">
          <mxGeometry width="50" height="50" relative="1" as="geometry">
            <mxPoint x="760" y="1410" as="sourcePoint" />
            <mxPoint x="620" y="1282.5" as="targetPoint" />
          </mxGeometry>
        </mxCell>
        <mxCell id="6ellRIqbGZI2gtahciG1-92" value="乘客打车报价上下文" style="text;html=1;align=center;verticalAlign=middle;resizable=0;points=[];autosize=1;strokeColor=none;fillColor=none;fontSize=28;fontColor=#000000;fontStyle=1" vertex="1" parent="1">
          <mxGeometry x="270" y="1065" width="300" height="60" as="geometry" />
        </mxCell>
        <mxCell id="6ellRIqbGZI2gtahciG1-95" value="" style="edgeStyle=orthogonalEdgeStyle;rounded=1;orthogonalLoop=1;jettySize=auto;html=1;fontSize=28;fontColor=#000000;" edge="1" parent="1" source="6ellRIqbGZI2gtahciG1-93" target="6ellRIqbGZI2gtahciG1-94">
          <mxGeometry relative="1" as="geometry" />
        </mxCell>
        <mxCell id="6ellRIqbGZI2gtahciG1-93" value="&amp;lt;Party&amp;gt;&lt;br&gt;&lt;br&gt;司机&lt;br&gt;" style="rounded=1;whiteSpace=wrap;html=1;fillColor=#60a917;fontColor=#ffffff;strokeColor=none;" vertex="1" parent="1">
          <mxGeometry x="1710" y="1265" width="70" height="60" as="geometry" />
        </mxCell>
        <mxCell id="6ellRIqbGZI2gtahciG1-94" value="&amp;lt;Contract&amp;gt;&lt;br&gt;&lt;br&gt;&lt;span id=&quot;docs-internal-guid-30c552a8-7fff-c146-13df-889dcf74978a&quot;&gt;&lt;span style=&quot;font-family: &amp;quot;Noto Sans SC&amp;quot;, sans-serif; background-color: transparent; font-variant-numeric: normal; font-variant-east-asian: normal; vertical-align: baseline;&quot;&gt;&lt;font style=&quot;font-size: 12px;&quot;&gt;注册司机合约&lt;br&gt;&lt;br&gt;&lt;/font&gt;&lt;/span&gt;&lt;/span&gt;" style="rounded=1;whiteSpace=wrap;html=1;fillColor=#d80073;fontColor=#ffffff;strokeColor=none;arcSize=12;" vertex="1" parent="1">
          <mxGeometry x="1685" y="1115" width="120" height="80" as="geometry" />
        </mxCell>
        <mxCell id="6ellRIqbGZI2gtahciG1-99" value="" style="edgeStyle=orthogonalEdgeStyle;rounded=1;orthogonalLoop=1;jettySize=auto;html=1;fontSize=28;fontColor=#000000;" edge="1" parent="1" source="6ellRIqbGZI2gtahciG1-96" target="6ellRIqbGZI2gtahciG1-94">
          <mxGeometry relative="1" as="geometry" />
        </mxCell>
        <mxCell id="6ellRIqbGZI2gtahciG1-96" value="&amp;lt;Proposal&amp;gt;&lt;br&gt;&lt;br&gt;&lt;span id=&quot;docs-internal-guid-30c552a8-7fff-c146-13df-889dcf74978a&quot;&gt;&lt;span style=&quot;font-family: &amp;quot;Noto Sans SC&amp;quot;, sans-serif; background-color: transparent; font-variant-numeric: normal; font-variant-east-asian: normal; vertical-align: baseline;&quot;&gt;&lt;font style=&quot;font-size: 12px;&quot;&gt;司机准入方案&lt;br&gt;&lt;/font&gt;&lt;/span&gt;&lt;/span&gt;" style="rounded=1;whiteSpace=wrap;html=1;fillColor=#d80073;fontColor=#ffffff;strokeColor=none;" vertex="1" parent="1">
          <mxGeometry x="1875" y="1125" width="120" height="60" as="geometry" />
        </mxCell>
        <mxCell id="6ellRIqbGZI2gtahciG1-98" value="" style="edgeStyle=orthogonalEdgeStyle;rounded=1;orthogonalLoop=1;jettySize=auto;html=1;fontSize=28;fontColor=#000000;" edge="1" parent="1" source="6ellRIqbGZI2gtahciG1-97" target="6ellRIqbGZI2gtahciG1-96">
          <mxGeometry relative="1" as="geometry" />
        </mxCell>
        <mxCell id="6ellRIqbGZI2gtahciG1-97" value="&amp;lt;rfp&amp;gt;&lt;br&gt;&lt;br&gt;&lt;span id=&quot;docs-internal-guid-30c552a8-7fff-c146-13df-889dcf74978a&quot;&gt;&lt;span style=&quot;font-family: &amp;quot;Noto Sans SC&amp;quot;, sans-serif; background-color: transparent; font-variant-numeric: normal; font-variant-east-asian: normal; vertical-align: baseline;&quot;&gt;&lt;font style=&quot;font-size: 12px;&quot;&gt;司机寻求注册准入&lt;br&gt;&lt;/font&gt;&lt;/span&gt;&lt;/span&gt;" style="rounded=1;whiteSpace=wrap;html=1;fillColor=#d80073;fontColor=#ffffff;strokeColor=none;" vertex="1" parent="1">
          <mxGeometry x="2055" y="1125" width="100" height="60" as="geometry" />
        </mxCell>
        <mxCell id="6ellRIqbGZI2gtahciG1-100" value="&amp;lt;Fulfillment&amp;gt;&lt;br&gt;&lt;br&gt;&lt;span id=&quot;docs-internal-guid-30c552a8-7fff-c146-13df-889dcf74978a&quot;&gt;&lt;span style=&quot;font-family: &amp;quot;Noto Sans SC&amp;quot;, sans-serif; background-color: transparent; font-variant-numeric: normal; font-variant-east-asian: normal; vertical-align: baseline;&quot;&gt;&lt;font style=&quot;font-size: 12px;&quot;&gt;注册请求&lt;br&gt;created_at&lt;br&gt;expired_at&lt;br&gt;&lt;/font&gt;&lt;/span&gt;&lt;/span&gt;" style="rounded=1;whiteSpace=wrap;html=1;fillColor=#d80073;fontColor=#ffffff;strokeColor=none;" vertex="1" parent="1">
          <mxGeometry x="1285" y="880" width="100" height="90" as="geometry" />
        </mxCell>
        <mxCell id="6ellRIqbGZI2gtahciG1-101" value="&amp;lt;evidence&amp;gt;&lt;br&gt;&lt;br&gt;&lt;span id=&quot;docs-internal-guid-30c552a8-7fff-c146-13df-889dcf74978a&quot;&gt;&lt;span style=&quot;font-family: &amp;quot;Noto Sans SC&amp;quot;, sans-serif; background-color: transparent; font-variant-numeric: normal; font-variant-east-asian: normal; vertical-align: baseline;&quot;&gt;&lt;font style=&quot;font-size: 12px;&quot;&gt;注册基本信息确认&lt;br&gt;created_at&lt;br&gt;expired_at&lt;br&gt;&lt;/font&gt;&lt;/span&gt;&lt;/span&gt;" style="rounded=1;whiteSpace=wrap;html=1;fillColor=#d80073;fontColor=#ffffff;strokeColor=none;" vertex="1" parent="1">
          <mxGeometry x="1465" y="880" width="120" height="90" as="geometry" />
        </mxCell>
        <mxCell id="6ellRIqbGZI2gtahciG1-102" value="" style="line;strokeWidth=2;html=1;rounded=1;fontSize=12;fontColor=#FFFFFF;fillColor=#589C15;" vertex="1" parent="1">
          <mxGeometry x="1385" y="920" width="80" height="10" as="geometry" />
        </mxCell>
        <mxCell id="6ellRIqbGZI2gtahciG1-103" value="&lt;font color=&quot;#000000&quot;&gt;1&lt;/font&gt;" style="text;html=1;align=center;verticalAlign=middle;resizable=0;points=[];autosize=1;strokeColor=none;fillColor=none;fontSize=12;fontColor=#FFFFFF;" vertex="1" parent="1">
          <mxGeometry x="1380" y="900" width="30" height="30" as="geometry" />
        </mxCell>
        <mxCell id="6ellRIqbGZI2gtahciG1-104" value="&lt;font color=&quot;#000000&quot;&gt;1&lt;/font&gt;" style="text;html=1;align=center;verticalAlign=middle;resizable=0;points=[];autosize=1;strokeColor=none;fillColor=none;fontSize=12;fontColor=#FFFFFF;" vertex="1" parent="1">
          <mxGeometry x="1425" y="900" width="30" height="30" as="geometry" />
        </mxCell>
        <mxCell id="6ellRIqbGZI2gtahciG1-105" value="Driver" style="rounded=1;whiteSpace=wrap;html=1;fontSize=12;fontColor=#FFFFFF;fillColor=#f0a30a;strokeColor=none;" vertex="1" parent="1">
          <mxGeometry x="1335" y="960" width="70" height="30" as="geometry" />
        </mxCell>
        <mxCell id="6ellRIqbGZI2gtahciG1-106" value="Driver" style="rounded=1;whiteSpace=wrap;html=1;fontSize=12;fontColor=#FFFFFF;fillColor=#f0a30a;strokeColor=none;" vertex="1" parent="1">
          <mxGeometry x="1545" y="960" width="70" height="30" as="geometry" />
        </mxCell>
        <mxCell id="6ellRIqbGZI2gtahciG1-107" value="&amp;lt;Fulfillment&amp;gt;&lt;br&gt;&lt;br&gt;&lt;span id=&quot;docs-internal-guid-30c552a8-7fff-c146-13df-889dcf74978a&quot;&gt;&lt;span style=&quot;font-family: &amp;quot;Noto Sans SC&amp;quot;, sans-serif; background-color: transparent; font-variant-numeric: normal; font-variant-east-asian: normal; vertical-align: baseline;&quot;&gt;&lt;font style=&quot;font-size: 12px;&quot;&gt;缴纳押金请求&lt;br&gt;created_at&lt;br&gt;expired_at&lt;br&gt;&lt;/font&gt;&lt;/span&gt;&lt;/span&gt;" style="rounded=1;whiteSpace=wrap;html=1;fillColor=#d80073;fontColor=#ffffff;strokeColor=none;" vertex="1" parent="1">
          <mxGeometry x="1285" y="1075" width="100" height="90" as="geometry" />
        </mxCell>
        <mxCell id="6ellRIqbGZI2gtahciG1-108" value="&amp;lt;evidence&amp;gt;&lt;br&gt;&lt;br&gt;&lt;span id=&quot;docs-internal-guid-30c552a8-7fff-c146-13df-889dcf74978a&quot;&gt;&lt;span style=&quot;font-family: &amp;quot;Noto Sans SC&amp;quot;, sans-serif; background-color: transparent; font-variant-numeric: normal; font-variant-east-asian: normal; vertical-align: baseline;&quot;&gt;&lt;font style=&quot;font-size: 12px;&quot;&gt;缴纳押金确认&lt;br&gt;created_at&lt;br&gt;expired_at&lt;br&gt;&lt;/font&gt;&lt;/span&gt;&lt;/span&gt;" style="rounded=1;whiteSpace=wrap;html=1;fillColor=#d80073;fontColor=#ffffff;strokeColor=none;" vertex="1" parent="1">
          <mxGeometry x="1465" y="1075" width="120" height="90" as="geometry" />
        </mxCell>
        <mxCell id="6ellRIqbGZI2gtahciG1-109" value="" style="line;strokeWidth=2;html=1;rounded=1;fontSize=12;fontColor=#FFFFFF;fillColor=#589C15;" vertex="1" parent="1">
          <mxGeometry x="1385" y="1115" width="80" height="10" as="geometry" />
        </mxCell>
        <mxCell id="6ellRIqbGZI2gtahciG1-110" value="&lt;font color=&quot;#000000&quot;&gt;1&lt;/font&gt;" style="text;html=1;align=center;verticalAlign=middle;resizable=0;points=[];autosize=1;strokeColor=none;fillColor=none;fontSize=12;fontColor=#FFFFFF;" vertex="1" parent="1">
          <mxGeometry x="1380" y="1095" width="30" height="30" as="geometry" />
        </mxCell>
        <mxCell id="6ellRIqbGZI2gtahciG1-111" value="&lt;font color=&quot;#000000&quot;&gt;1&lt;/font&gt;" style="text;html=1;align=center;verticalAlign=middle;resizable=0;points=[];autosize=1;strokeColor=none;fillColor=none;fontSize=12;fontColor=#FFFFFF;" vertex="1" parent="1">
          <mxGeometry x="1425" y="1095" width="30" height="30" as="geometry" />
        </mxCell>
        <mxCell id="6ellRIqbGZI2gtahciG1-112" value="Driver" style="rounded=1;whiteSpace=wrap;html=1;fontSize=12;fontColor=#FFFFFF;fillColor=#f0a30a;strokeColor=none;" vertex="1" parent="1">
          <mxGeometry x="1335" y="1155" width="70" height="30" as="geometry" />
        </mxCell>
        <mxCell id="6ellRIqbGZI2gtahciG1-113" value="Driver" style="rounded=1;whiteSpace=wrap;html=1;fontSize=12;fontColor=#FFFFFF;fillColor=#f0a30a;strokeColor=none;" vertex="1" parent="1">
          <mxGeometry x="1545" y="1155" width="70" height="30" as="geometry" />
        </mxCell>
        <mxCell id="6ellRIqbGZI2gtahciG1-119" value="&amp;lt;Fulfillment&amp;gt;&lt;br&gt;&lt;br&gt;&lt;span id=&quot;docs-internal-guid-30c552a8-7fff-c146-13df-889dcf74978a&quot;&gt;&lt;span style=&quot;font-family: &amp;quot;Noto Sans SC&amp;quot;, sans-serif; background-color: transparent; font-variant-numeric: normal; font-variant-east-asian: normal; vertical-align: baseline;&quot;&gt;&lt;font style=&quot;font-size: 12px;&quot;&gt;支付请求&lt;br&gt;created_at&lt;br&gt;expired_at&lt;br&gt;&lt;/font&gt;&lt;/span&gt;&lt;/span&gt;" style="rounded=1;whiteSpace=wrap;html=1;fillColor=#d80073;fontColor=#ffffff;strokeColor=none;" vertex="1" parent="1">
          <mxGeometry x="1275" y="1250" width="100" height="90" as="geometry" />
        </mxCell>
        <mxCell id="6ellRIqbGZI2gtahciG1-120" value="&amp;lt;evidence&amp;gt;&lt;br&gt;&lt;br&gt;&lt;span id=&quot;docs-internal-guid-30c552a8-7fff-c146-13df-889dcf74978a&quot;&gt;&lt;span style=&quot;font-family: &amp;quot;Noto Sans SC&amp;quot;, sans-serif; background-color: transparent; font-variant-numeric: normal; font-variant-east-asian: normal; vertical-align: baseline;&quot;&gt;&lt;font style=&quot;font-size: 12px;&quot;&gt;支付确认&lt;br&gt;created_at&lt;br&gt;expired_at&lt;br&gt;&lt;/font&gt;&lt;/span&gt;&lt;/span&gt;" style="rounded=1;whiteSpace=wrap;html=1;fillColor=#d80073;fontColor=#ffffff;strokeColor=none;" vertex="1" parent="1">
          <mxGeometry x="1455" y="1250" width="120" height="90" as="geometry" />
        </mxCell>
        <mxCell id="6ellRIqbGZI2gtahciG1-121" value="" style="line;strokeWidth=2;html=1;rounded=1;fontSize=12;fontColor=#FFFFFF;fillColor=#589C15;" vertex="1" parent="1">
          <mxGeometry x="1375" y="1290" width="80" height="10" as="geometry" />
        </mxCell>
        <mxCell id="6ellRIqbGZI2gtahciG1-122" value="&lt;font color=&quot;#000000&quot;&gt;1&lt;/font&gt;" style="text;html=1;align=center;verticalAlign=middle;resizable=0;points=[];autosize=1;strokeColor=none;fillColor=none;fontSize=12;fontColor=#FFFFFF;" vertex="1" parent="1">
          <mxGeometry x="1370" y="1270" width="30" height="30" as="geometry" />
        </mxCell>
        <mxCell id="6ellRIqbGZI2gtahciG1-123" value="&lt;font color=&quot;#000000&quot;&gt;1&lt;/font&gt;" style="text;html=1;align=center;verticalAlign=middle;resizable=0;points=[];autosize=1;strokeColor=none;fillColor=none;fontSize=12;fontColor=#FFFFFF;" vertex="1" parent="1">
          <mxGeometry x="1415" y="1270" width="30" height="30" as="geometry" />
        </mxCell>
        <mxCell id="6ellRIqbGZI2gtahciG1-124" value="Driver" style="rounded=1;whiteSpace=wrap;html=1;fontSize=12;fontColor=#FFFFFF;fillColor=#f0a30a;strokeColor=none;" vertex="1" parent="1">
          <mxGeometry x="1325" y="1330" width="70" height="30" as="geometry" />
        </mxCell>
        <mxCell id="6ellRIqbGZI2gtahciG1-125" value="Driver" style="rounded=1;whiteSpace=wrap;html=1;fontSize=12;fontColor=#FFFFFF;fillColor=#f0a30a;strokeColor=none;" vertex="1" parent="1">
          <mxGeometry x="1535" y="1330" width="70" height="30" as="geometry" />
        </mxCell>
        <mxCell id="6ellRIqbGZI2gtahciG1-126" value="&amp;lt;Fulfillment&amp;gt;&lt;br&gt;&lt;br&gt;&lt;span id=&quot;docs-internal-guid-30c552a8-7fff-c146-13df-889dcf74978a&quot;&gt;&lt;span style=&quot;font-family: &amp;quot;Noto Sans SC&amp;quot;, sans-serif; background-color: transparent; font-variant-numeric: normal; font-variant-east-asian: normal; vertical-align: baseline;&quot;&gt;&lt;font style=&quot;font-size: 12px;&quot;&gt;安装设备请求&lt;br&gt;created_at&lt;br&gt;expired_at&lt;br&gt;&lt;/font&gt;&lt;/span&gt;&lt;/span&gt;" style="rounded=1;whiteSpace=wrap;html=1;fillColor=#d80073;fontColor=#ffffff;strokeColor=none;" vertex="1" parent="1">
          <mxGeometry x="1285" y="1410" width="100" height="90" as="geometry" />
        </mxCell>
        <mxCell id="6ellRIqbGZI2gtahciG1-127" value="&amp;lt;evidence&amp;gt;&lt;br&gt;&lt;br&gt;&lt;span id=&quot;docs-internal-guid-30c552a8-7fff-c146-13df-889dcf74978a&quot;&gt;&lt;span style=&quot;font-family: &amp;quot;Noto Sans SC&amp;quot;, sans-serif; background-color: transparent; font-variant-numeric: normal; font-variant-east-asian: normal; vertical-align: baseline;&quot;&gt;&lt;font style=&quot;font-size: 12px;&quot;&gt;安装设备确认&lt;br&gt;created_at&lt;br&gt;expired_at&lt;br&gt;&lt;/font&gt;&lt;/span&gt;&lt;/span&gt;" style="rounded=1;whiteSpace=wrap;html=1;fillColor=#d80073;fontColor=#ffffff;strokeColor=none;" vertex="1" parent="1">
          <mxGeometry x="1465" y="1410" width="120" height="90" as="geometry" />
        </mxCell>
        <mxCell id="6ellRIqbGZI2gtahciG1-128" value="" style="line;strokeWidth=2;html=1;rounded=1;fontSize=12;fontColor=#FFFFFF;fillColor=#589C15;" vertex="1" parent="1">
          <mxGeometry x="1385" y="1450" width="80" height="10" as="geometry" />
        </mxCell>
        <mxCell id="6ellRIqbGZI2gtahciG1-129" value="&lt;font color=&quot;#000000&quot;&gt;1&lt;/font&gt;" style="text;html=1;align=center;verticalAlign=middle;resizable=0;points=[];autosize=1;strokeColor=none;fillColor=none;fontSize=12;fontColor=#FFFFFF;" vertex="1" parent="1">
          <mxGeometry x="1380" y="1430" width="30" height="30" as="geometry" />
        </mxCell>
        <mxCell id="6ellRIqbGZI2gtahciG1-130" value="&lt;font color=&quot;#000000&quot;&gt;1&lt;/font&gt;" style="text;html=1;align=center;verticalAlign=middle;resizable=0;points=[];autosize=1;strokeColor=none;fillColor=none;fontSize=12;fontColor=#FFFFFF;" vertex="1" parent="1">
          <mxGeometry x="1425" y="1430" width="30" height="30" as="geometry" />
        </mxCell>
        <mxCell id="6ellRIqbGZI2gtahciG1-131" value="Driver" style="rounded=1;whiteSpace=wrap;html=1;fontSize=12;fontColor=#FFFFFF;fillColor=#f0a30a;strokeColor=none;" vertex="1" parent="1">
          <mxGeometry x="1335" y="1490" width="70" height="30" as="geometry" />
        </mxCell>
        <mxCell id="6ellRIqbGZI2gtahciG1-132" value="Driver" style="rounded=1;whiteSpace=wrap;html=1;fontSize=12;fontColor=#FFFFFF;fillColor=#f0a30a;strokeColor=none;" vertex="1" parent="1">
          <mxGeometry x="1545" y="1490" width="70" height="30" as="geometry" />
        </mxCell>
        <mxCell id="6ellRIqbGZI2gtahciG1-133" value="" style="endArrow=none;html=1;rounded=1;fontSize=28;fontColor=#000000;entryX=0;entryY=0.25;entryDx=0;entryDy=0;exitX=1;exitY=1;exitDx=0;exitDy=0;" edge="1" parent="1" source="6ellRIqbGZI2gtahciG1-106" target="6ellRIqbGZI2gtahciG1-94">
          <mxGeometry width="50" height="50" relative="1" as="geometry">
            <mxPoint x="1710" y="1030" as="sourcePoint" />
            <mxPoint x="1760" y="980" as="targetPoint" />
          </mxGeometry>
        </mxCell>
        <mxCell id="6ellRIqbGZI2gtahciG1-137" value="" style="endArrow=none;html=1;rounded=1;fontSize=28;fontColor=#000000;entryX=0;entryY=0.25;entryDx=0;entryDy=0;exitX=1;exitY=0.5;exitDx=0;exitDy=0;" edge="1" parent="1" source="6ellRIqbGZI2gtahciG1-108" target="6ellRIqbGZI2gtahciG1-94">
          <mxGeometry width="50" height="50" relative="1" as="geometry">
            <mxPoint x="1670.0000000000005" y="1083.75" as="sourcePoint" />
            <mxPoint x="1860.0000000000005" y="1226.25" as="targetPoint" />
          </mxGeometry>
        </mxCell>
        <mxCell id="6ellRIqbGZI2gtahciG1-138" value="" style="endArrow=none;html=1;rounded=1;fontSize=28;fontColor=#000000;entryX=0;entryY=0.25;entryDx=0;entryDy=0;exitX=1;exitY=0.5;exitDx=0;exitDy=0;" edge="1" parent="1" source="6ellRIqbGZI2gtahciG1-120" target="6ellRIqbGZI2gtahciG1-94">
          <mxGeometry width="50" height="50" relative="1" as="geometry">
            <mxPoint x="1665.0000000000005" y="1270" as="sourcePoint" />
            <mxPoint x="1885.0000000000005" y="1282.5" as="targetPoint" />
          </mxGeometry>
        </mxCell>
        <mxCell id="6ellRIqbGZI2gtahciG1-139" value="" style="endArrow=none;html=1;rounded=1;fontSize=28;fontColor=#000000;entryX=0;entryY=0.25;entryDx=0;entryDy=0;exitX=1;exitY=0.5;exitDx=0;exitDy=0;" edge="1" parent="1" source="6ellRIqbGZI2gtahciG1-127" target="6ellRIqbGZI2gtahciG1-94">
          <mxGeometry width="50" height="50" relative="1" as="geometry">
            <mxPoint x="1680.0000000000005" y="1430" as="sourcePoint" />
            <mxPoint x="1900.0000000000005" y="1442.5" as="targetPoint" />
          </mxGeometry>
        </mxCell>
        <mxCell id="6ellRIqbGZI2gtahciG1-140" value="注册司机端上下文" style="text;html=1;align=center;verticalAlign=middle;resizable=0;points=[];autosize=1;strokeColor=none;fillColor=none;fontSize=28;fontColor=#000000;fontStyle=1" vertex="1" parent="1">
          <mxGeometry x="1675" y="1040" width="260" height="60" as="geometry" />
        </mxCell>
        <mxCell id="6ellRIqbGZI2gtahciG1-154" value="" style="edgeStyle=orthogonalEdgeStyle;rounded=1;orthogonalLoop=1;jettySize=auto;html=1;fontSize=28;fontColor=#000000;" edge="1" parent="1" source="6ellRIqbGZI2gtahciG1-150" target="6ellRIqbGZI2gtahciG1-153">
          <mxGeometry relative="1" as="geometry" />
        </mxCell>
        <mxCell id="6ellRIqbGZI2gtahciG1-150" value="&amp;lt;evidence&amp;gt;&lt;br&gt;&lt;br&gt;&lt;span id=&quot;docs-internal-guid-30c552a8-7fff-c146-13df-889dcf74978a&quot;&gt;&lt;span style=&quot;font-family: &amp;quot;Noto Sans SC&amp;quot;, sans-serif; background-color: transparent; font-variant-numeric: normal; font-variant-east-asian: normal; vertical-align: baseline;&quot;&gt;&lt;font style=&quot;font-size: 12px;&quot;&gt;发票&lt;br&gt;created_at&lt;br&gt;&lt;/font&gt;&lt;/span&gt;&lt;/span&gt;" style="rounded=1;whiteSpace=wrap;html=1;fillColor=#d80073;fontColor=#ffffff;strokeColor=none;arcSize=12;" vertex="1" parent="1">
          <mxGeometry x="320" y="1660" width="100" height="80" as="geometry" />
        </mxCell>
        <mxCell id="6ellRIqbGZI2gtahciG1-156" value="" style="edgeStyle=orthogonalEdgeStyle;rounded=1;orthogonalLoop=1;jettySize=auto;html=1;fontSize=28;fontColor=#000000;" edge="1" parent="1" source="6ellRIqbGZI2gtahciG1-151" target="6ellRIqbGZI2gtahciG1-152">
          <mxGeometry relative="1" as="geometry" />
        </mxCell>
        <mxCell id="6ellRIqbGZI2gtahciG1-151" value="&amp;lt;&amp;nbsp;Fulfillment &amp;gt;&lt;br&gt;&lt;br&gt;&lt;span id=&quot;docs-internal-guid-30c552a8-7fff-c146-13df-889dcf74978a&quot;&gt;&lt;span style=&quot;font-family: &amp;quot;Noto Sans SC&amp;quot;, sans-serif; background-color: transparent; font-variant-numeric: normal; font-variant-east-asian: normal; vertical-align: baseline;&quot;&gt;&lt;font style=&quot;font-size: 12px;&quot;&gt;发票请求&lt;span style=&quot;color: rgba(0, 0, 0, 0); font-family: monospace; font-size: 0px; text-align: start;&quot;&gt;%3CmxGraphModel%3E%3Croot%3E%3CmxCell%20id%3D%220%22%2F%3E%3CmxCell%20id%3D%221%22%20parent%3D%220%22%2F%3E%3CmxCell%20id%3D%222%22%20value%3D%22%26amp%3Blt%3Bevidence%26amp%3Bgt%3B%26lt%3Bbr%26gt%3B%26lt%3Bbr%26gt%3B%26lt%3Bspan%20id%3D%26quot%3Bdocs-internal-guid-30c552a8-7fff-c146-13df-889dcf74978a%26quot%3B%26gt%3B%26lt%3Bspan%20style%3D%26quot%3Bfont-family%3A%20%26amp%3Bquot%3BNoto%20Sans%20SC%26amp%3Bquot%3B%2C%20sans-serif%3B%20background-color%3A%20transparent%3B%20font-variant-numeric%3A%20normal%3B%20font-variant-east-asian%3A%20normal%3B%20vertical-align%3A%20baseline%3B%26quot%3B%26gt%3B%26lt%3Bfont%20style%3D%26quot%3Bfont-size%3A%2012px%3B%26quot%3B%26gt%3B%E5%8F%91%E7%A5%A8%26lt%3Bbr%26gt%3Bcreated_at%26lt%3Bbr%26gt%3B%26lt%3B%2Ffont%26gt%3B%26lt%3B%2Fspan%26gt%3B%26lt%3B%2Fspan%26gt%3B%22%20style%3D%22rounded%3D1%3BwhiteSpace%3Dwrap%3Bhtml%3D1%3BfillColor%3D%23d80073%3BfontColor%3D%23ffffff%3BstrokeColor%3Dnone%3BarcSize%3D12%3B%22%20vertex%3D%221%22%20parent%3D%221%22%3E%3CmxGeometry%20x%3D%22740%22%20y%3D%221640%22%20width%3D%22100%22%20height%3D%2290%22%20as%3D%22geometry%22%2F%3E%3C%2FmxCell%3E%3C%2Froot%3E%3C%2FmxGraphModel%3E&lt;/span&gt;&lt;br&gt;created_at&lt;br&gt;&lt;/font&gt;&lt;/span&gt;&lt;/span&gt;" style="rounded=1;whiteSpace=wrap;html=1;fillColor=#d80073;fontColor=#ffffff;strokeColor=none;arcSize=12;" vertex="1" parent="1">
          <mxGeometry x="590" y="1660" width="100" height="80" as="geometry" />
        </mxCell>
        <mxCell id="6ellRIqbGZI2gtahciG1-152" value="&amp;lt;evidence&amp;gt;&lt;br&gt;&lt;br&gt;&lt;span id=&quot;docs-internal-guid-30c552a8-7fff-c146-13df-889dcf74978a&quot;&gt;&lt;span style=&quot;font-family: &amp;quot;Noto Sans SC&amp;quot;, sans-serif; background-color: transparent; font-variant-numeric: normal; font-variant-east-asian: normal; vertical-align: baseline;&quot;&gt;&lt;font style=&quot;font-size: 12px;&quot;&gt;发票确认&lt;span style=&quot;color: rgba(0, 0, 0, 0); font-family: monospace; font-size: 0px; text-align: start;&quot;&gt;%3CmxGraphModel%3E%3Croot%3E%3CmxCell%20id%3D%220%22%2F%3E%3CmxCell%20id%3D%221%22%20parent%3D%220%22%2F%3E%3CmxCell%20id%3D%222%22%20value%3D%22%26amp%3Blt%3Bevidence%26amp%3Bgt%3B%26lt%3Bbr%26gt%3B%26lt%3Bbr%26gt%3B%26lt%3Bspan%20id%3D%26quot%3Bdocs-internal-guid-30c552a8-7fff-c146-13df-889dcf74978a%26quot%3B%26gt%3B%26lt%3Bspan%20style%3D%26quot%3Bfont-family%3A%20%26amp%3Bquot%3BNoto%20Sans%20SC%26amp%3Bquot%3B%2C%20sans-serif%3B%20background-color%3A%20transparent%3B%20font-variant-numeric%3A%20normal%3B%20font-variant-east-asian%3A%20normal%3B%20vertical-align%3A%20baseline%3B%26quot%3B%26gt%3B%26lt%3Bfont%20style%3D%26quot%3Bfont-size%3A%2012px%3B%26quot%3B%26gt%3B%E5%8F%91%E7%A5%A8%26lt%3Bbr%26gt%3Bcreated_at%26lt%3Bbr%26gt%3B%26lt%3B%2Ffont%26gt%3B%26lt%3B%2Fspan%26gt%3B%26lt%3B%2Fspan%26gt%3B%22%20style%3D%22rounded%3D1%3BwhiteSpace%3Dwrap%3Bhtml%3D1%3BfillColor%3D%23d80073%3BfontColor%3D%23ffffff%3BstrokeColor%3Dnone%3BarcSize%3D12%3B%22%20vertex%3D%221%22%20parent%3D%221%22%3E%3CmxGeometry%20x%3D%22740%22%20y%3D%221640%22%20width%3D%22100%22%20height%3D%2290%22%20as%3D%22geometry%22%2F%3E%3C%2FmxCell%3E%3C%2Froot%3E%3C%2FmxGraphModel%3E&lt;/span&gt;&lt;br&gt;created_at&lt;br&gt;&lt;/font&gt;&lt;/span&gt;&lt;/span&gt;" style="rounded=1;whiteSpace=wrap;html=1;fillColor=#d80073;fontColor=#ffffff;strokeColor=none;arcSize=12;" vertex="1" parent="1">
          <mxGeometry x="760" y="1660" width="100" height="80" as="geometry" />
        </mxCell>
        <mxCell id="6ellRIqbGZI2gtahciG1-155" value="" style="edgeStyle=orthogonalEdgeStyle;rounded=1;orthogonalLoop=1;jettySize=auto;html=1;fontSize=28;fontColor=#000000;" edge="1" parent="1" source="6ellRIqbGZI2gtahciG1-153" target="6ellRIqbGZI2gtahciG1-151">
          <mxGeometry relative="1" as="geometry" />
        </mxCell>
        <mxCell id="6ellRIqbGZI2gtahciG1-153" value="&amp;lt;contract&amp;gt;&lt;br&gt;&lt;br&gt;&lt;span id=&quot;docs-internal-guid-30c552a8-7fff-c146-13df-889dcf74978a&quot;&gt;&lt;span style=&quot;font-family: &amp;quot;Noto Sans SC&amp;quot;, sans-serif; background-color: transparent; font-variant-numeric: normal; font-variant-east-asian: normal; vertical-align: baseline;&quot;&gt;&lt;font style=&quot;font-size: 12px;&quot;&gt;发票协议&lt;span style=&quot;color: rgba(0, 0, 0, 0); font-family: monospace; font-size: 0px; text-align: start;&quot;&gt;%3CmxGraphModel%3E%3Croot%3E%3CmxCell%20id%3D%220%22%2F%3E%3CmxCell%20id%3D%221%22%20parent%3D%220%22%2F%3E%3CmxCell%20id%3D%222%22%20value%3D%22%26amp%3Blt%3Bevidence%26amp%3Bgt%3B%26lt%3Bbr%26gt%3B%26lt%3Bbr%26gt%3B%26lt%3Bspan%20id%3D%26quot%3Bdocs-internal-guid-30c552a8-7fff-c146-13df-889dcf74978a%26quot%3B%26gt%3B%26lt%3Bspan%20style%3D%26quot%3Bfont-family%3A%20%26amp%3Bquot%3BNoto%20Sans%20SC%26amp%3Bquot%3B%2C%20sans-serif%3B%20background-color%3A%20transparent%3B%20font-variant-numeric%3A%20normal%3B%20font-variant-east-asian%3A%20normal%3B%20vertical-align%3A%20baseline%3B%26quot%3B%26gt%3B%26lt%3Bfont%20style%3D%26quot%3Bfont-size%3A%2012px%3B%26quot%3B%26gt%3B%E5%8F%91%E7%A5%A8%26lt%3Bbr%26gt%3Bcreated_at%26lt%3Bbr%26gt%3B%26lt%3B%2Ffont%26gt%3B%26lt%3B%2Fspan%26gt%3B%26lt%3B%2Fspan%26gt%3B%22%20style%3D%22rounded%3D1%3BwhiteSpace%3Dwrap%3Bhtml%3D1%3BfillColor%3D%23d80073%3BfontColor%3D%23ffffff%3BstrokeColor%3Dnone%3BarcSize%3D12%3B%22%20vertex%3D%221%22%20parent%3D%221%22%3E%3CmxGeometry%20x%3D%22740%22%20y%3D%221640%22%20width%3D%22100%22%20height%3D%2290%22%20as%3D%22geometry%22%2F%3E%3C%2FmxCell%3E%3C%2Froot%3E%3C%2FmxGraphModel%3E&lt;/span&gt;&lt;br&gt;&lt;/font&gt;&lt;/span&gt;&lt;/span&gt;" style="rounded=1;whiteSpace=wrap;html=1;fillColor=#d80073;fontColor=#ffffff;strokeColor=none;arcSize=12;" vertex="1" parent="1">
          <mxGeometry x="450" y="1665" width="100" height="60" as="geometry" />
        </mxCell>
        <mxCell id="6ellRIqbGZI2gtahciG1-158" value="" style="edgeStyle=orthogonalEdgeStyle;rounded=1;orthogonalLoop=1;jettySize=auto;html=1;fontSize=28;fontColor=#000000;" edge="1" parent="1" source="6ellRIqbGZI2gtahciG1-157" target="6ellRIqbGZI2gtahciG1-153">
          <mxGeometry relative="1" as="geometry" />
        </mxCell>
        <mxCell id="6ellRIqbGZI2gtahciG1-157" value="发票系统&lt;br&gt;" style="text;html=1;align=center;verticalAlign=middle;resizable=0;points=[];autosize=1;strokeColor=none;fillColor=none;fontSize=28;fontColor=#000000;" vertex="1" parent="1">
          <mxGeometry x="420" y="1775" width="160" height="60" as="geometry" />
        </mxCell>
        <mxCell id="6ellRIqbGZI2gtahciG1-161" value="" style="endArrow=none;html=1;rounded=1;fontSize=28;fontColor=#000000;" edge="1" parent="1" source="6ellRIqbGZI2gtahciG1-153">
          <mxGeometry width="50" height="50" relative="1" as="geometry">
            <mxPoint x="940" y="1550" as="sourcePoint" />
            <mxPoint x="990" y="1500" as="targetPoint" />
          </mxGeometry>
        </mxCell>
        <mxCell id="6ellRIqbGZI2gtahciG1-165" value="&amp;lt;&amp;nbsp;Fulfillment &amp;gt;&lt;br&gt;&lt;br&gt;&lt;span id=&quot;docs-internal-guid-30c552a8-7fff-c146-13df-889dcf74978a&quot;&gt;&lt;span style=&quot;font-family: &amp;quot;Noto Sans SC&amp;quot;, sans-serif; background-color: transparent; font-variant-numeric: normal; font-variant-east-asian: normal; vertical-align: baseline;&quot;&gt;&lt;font style=&quot;font-size: 12px;&quot;&gt;支付请求&lt;span style=&quot;color: rgba(0, 0, 0, 0); font-family: monospace; font-size: 0px; text-align: start;&quot;&gt;%3CmxGraphModel%3E%3Croot%3E%3CmxCell%20id%3D%220%22%2F%3E%3CmxCell%20id%3D%221%22%20parent%3D%220%22%2F%3E%3CmxCell%20id%3D%222%22%20value%3D%22%26amp%3Blt%3Bevidence%26amp%3Bgt%3B%26lt%3Bbr%26gt%3B%26lt%3Bbr%26gt%3B%26lt%3Bspan%20id%3D%26quot%3Bdocs-internal-guid-30c552a8-7fff-c146-13df-889dcf74978a%26quot%3B%26gt%3B%26lt%3Bspan%20style%3D%26quot%3Bfont-family%3A%20%26amp%3Bquot%3BNoto%20Sans%20SC%26amp%3Bquot%3B%2C%20sans-serif%3B%20background-color%3A%20transparent%3B%20font-variant-numeric%3A%20normal%3B%20font-variant-east-asian%3A%20normal%3B%20vertical-align%3A%20baseline%3B%26quot%3B%26gt%3B%26lt%3Bfont%20style%3D%26quot%3Bfont-size%3A%2012px%3B%26quot%3B%26gt%3B%E5%8F%91%E7%A5%A8%26lt%3Bbr%26gt%3Bcreated_at%26lt%3Bbr%26gt%3B%26lt%3B%2Ffont%26gt%3B%26lt%3B%2Fspan%26gt%3B%26lt%3B%2Fspan%26gt%3B%22%20style%3D%22rounded%3D1%3BwhiteSpace%3Dwrap%3Bhtml%3D1%3BfillColor%3D%23d80073%3BfontColor%3D%23ffffff%3BstrokeColor%3Dnone%3BarcSize%3D12%3B%22%20vertex%3D%221%22%20parent%3D%221%22%3E%3CmxGeometry%20x%3D%22740%22%20y%3D%221640%22%20width%3D%22100%22%20height%3D%2290%22%20as%3D%22geometry%22%2F%3E%3C%2FmxCell%3E%3C%2Froot%3E%3C%2FmxGraphModel%3E&lt;/span&gt;&lt;br&gt;created_at&lt;br&gt;expired_at&lt;br&gt;&lt;/font&gt;&lt;/span&gt;&lt;/span&gt;" style="rounded=1;whiteSpace=wrap;html=1;fillColor=#d80073;fontColor=#ffffff;strokeColor=none;arcSize=12;" vertex="1" parent="1">
          <mxGeometry x="990" y="745" width="100" height="80" as="geometry" />
        </mxCell>
        <mxCell id="6ellRIqbGZI2gtahciG1-166" value="&amp;lt;evidence&amp;gt;&lt;br&gt;&lt;br&gt;&lt;span id=&quot;docs-internal-guid-30c552a8-7fff-c146-13df-889dcf74978a&quot;&gt;&lt;span style=&quot;font-family: &amp;quot;Noto Sans SC&amp;quot;, sans-serif; background-color: transparent; font-variant-numeric: normal; font-variant-east-asian: normal; vertical-align: baseline;&quot;&gt;&lt;font style=&quot;font-size: 12px;&quot;&gt;支付确认&lt;span style=&quot;color: rgba(0, 0, 0, 0); font-family: monospace; font-size: 0px; text-align: start;&quot;&gt;%3CmxGraphModel%3E%3Croot%3E%3CmxCell%20id%3D%220%22%2F%3E%3CmxCell%20id%3D%221%22%20parent%3D%220%22%2F%3E%3CmxCell%20id%3D%222%22%20value%3D%22%26amp%3Blt%3Bevidence%26amp%3Bgt%3B%26lt%3Bbr%26gt%3B%26lt%3Bbr%26gt%3B%26lt%3Bspan%20id%3D%26quot%3Bdocs-internal-guid-30c552a8-7fff-c146-13df-889dcf74978a%26quot%3B%26gt%3B%26lt%3Bspan%20style%3D%26quot%3Bfont-family%3A%20%26amp%3Bquot%3BNoto%20Sans%20SC%26amp%3Bquot%3B%2C%20sans-serif%3B%20background-color%3A%20transparent%3B%20font-variant-numeric%3A%20normal%3B%20font-variant-east-asian%3A%20normal%3B%20vertical-align%3A%20baseline%3B%26quot%3B%26gt%3B%26lt%3Bfont%20style%3D%26quot%3Bfont-size%3A%2012px%3B%26quot%3B%26gt%3B%E5%8F%91%E7%A5%A8%26lt%3Bbr%26gt%3Bcreated_at%26lt%3Bbr%26gt%3B%26lt%3B%2Ffont%26gt%3B%26lt%3B%2Fspan%26gt%3B%26lt%3B%2Fspan%26gt%3B%22%20style%3D%22rounded%3D1%3BwhiteSpace%3Dwrap%3Bhtml%3D1%3BfillColor%3D%23d80073%3BfontColor%3D%23ffffff%3BstrokeColor%3Dnone%3BarcSize%3D12%3B%22%20vertex%3D%221%22%20parent%3D%221%22%3E%3CmxGeometry%20x%3D%22740%22%20y%3D%221640%22%20width%3D%22100%22%20height%3D%2290%22%20as%3D%22geometry%22%2F%3E%3C%2FmxCell%3E%3C%2Froot%3E%3C%2FmxGraphModel%3E&lt;/span&gt;&lt;br&gt;created_at&lt;br&gt;expired_at&lt;br&gt;&lt;/font&gt;&lt;/span&gt;&lt;/span&gt;" style="rounded=1;whiteSpace=wrap;html=1;fillColor=#d80073;fontColor=#ffffff;strokeColor=none;arcSize=12;" vertex="1" parent="1">
          <mxGeometry x="1160" y="740" width="100" height="80" as="geometry" />
        </mxCell>
        <mxCell id="6ellRIqbGZI2gtahciG1-168" value="&amp;lt;contract&amp;gt;&lt;br&gt;&lt;br&gt;&lt;span id=&quot;docs-internal-guid-30c552a8-7fff-c146-13df-889dcf74978a&quot;&gt;&lt;span style=&quot;font-family: &amp;quot;Noto Sans SC&amp;quot;, sans-serif; background-color: transparent; font-variant-numeric: normal; font-variant-east-asian: normal; vertical-align: baseline;&quot;&gt;&lt;font style=&quot;font-size: 12px;&quot;&gt;第三方支付协议&lt;span style=&quot;color: rgba(0, 0, 0, 0); font-family: monospace; font-size: 0px; text-align: start;&quot;&gt;%3CmxGraphModel%3E%3Croot%3E%3CmxCell%20id%3D%220%22%2F%3E%3CmxCell%20id%3D%221%22%20parent%3D%220%22%2F%3E%3CmxCell%20id%3D%222%22%20value%3D%22%26amp%3Blt%3Bevidence%26amp%3Bgt%3B%26lt%3Bbr%26gt%3B%26lt%3Bbr%26gt%3B%26lt%3Bspan%20id%3D%26quot%3Bdocs-internal-guid-30c552a8-7fff-c146-13df-889dcf74978a%26quot%3B%26gt%3B%26lt%3Bspan%20style%3D%26quot%3Bfont-family%3A%20%26amp%3Bquot%3BNoto%20Sans%20SC%26amp%3Bquot%3B%2C%20sans-serif%3B%20background-color%3A%20transparent%3B%20font-variant-numeric%3A%20normal%3B%20font-variant-east-asian%3A%20normal%3B%20vertical-align%3A%20baseline%3B%26quot%3B%26gt%3B%26lt%3Bfont%20style%3D%26quot%3Bfont-size%3A%2012px%3B%26quot%3B%26gt%3B%E5%8F%91%E7%A5%A8%26lt%3Bbr%26gt%3Bcreated_at%26lt%3Bbr%26gt%3B%26lt%3B%2Ffont%26gt%3B%26lt%3B%2Fspan%26gt%3B%26lt%3B%2Fspan%26gt%3B%22%20style%3D%22rounded%3D1%3BwhiteSpace%3Dwrap%3Bhtml%3D1%3BfillColor%3D%23d80073%3BfontColor%3D%23ffffff%3BstrokeColor%3Dnone%3BarcSize%3D12%3B%22%20vertex%3D%221%22%20parent%3D%221%22%3E%3CmxGeometry%20x%3D%22740%22%20y%3D%221640%22%20width%3D%22100%22%20height%3D%2290%22%20as%3D%22geometry%22%2F%3E%3C%2FmxCell%3E%3C%2Froot%3E%3C%2FmxGraphModel%3E&lt;/span&gt;&lt;br&gt;&lt;/font&gt;&lt;/span&gt;&lt;/span&gt;" style="rounded=1;whiteSpace=wrap;html=1;fillColor=#d80073;fontColor=#ffffff;strokeColor=none;arcSize=12;" vertex="1" parent="1">
          <mxGeometry x="1340" y="745" width="100" height="60" as="geometry" />
        </mxCell>
        <mxCell id="6ellRIqbGZI2gtahciG1-171" value="" style="endArrow=none;html=1;rounded=1;fontSize=28;fontColor=#000000;exitX=1;exitY=0.5;exitDx=0;exitDy=0;entryX=0;entryY=0.5;entryDx=0;entryDy=0;" edge="1" parent="1" source="6ellRIqbGZI2gtahciG1-165" target="6ellRIqbGZI2gtahciG1-166">
          <mxGeometry width="50" height="50" relative="1" as="geometry">
            <mxPoint x="1110" y="785" as="sourcePoint" />
            <mxPoint x="1160" y="735" as="targetPoint" />
          </mxGeometry>
        </mxCell>
        <mxCell id="6ellRIqbGZI2gtahciG1-173" value="" style="endArrow=none;html=1;rounded=1;fontSize=28;fontColor=#000000;exitX=1;exitY=0.5;exitDx=0;exitDy=0;entryX=0;entryY=0.5;entryDx=0;entryDy=0;" edge="1" parent="1" target="6ellRIqbGZI2gtahciG1-168">
          <mxGeometry width="50" height="50" relative="1" as="geometry">
            <mxPoint x="1260" y="777.5" as="sourcePoint" />
            <mxPoint x="1330" y="772.5" as="targetPoint" />
          </mxGeometry>
        </mxCell>
        <mxCell id="6ellRIqbGZI2gtahciG1-175" value="" style="edgeStyle=orthogonalEdgeStyle;rounded=1;orthogonalLoop=1;jettySize=auto;html=1;fontSize=28;fontColor=#000000;" edge="1" parent="1" source="6ellRIqbGZI2gtahciG1-174" target="6ellRIqbGZI2gtahciG1-166">
          <mxGeometry relative="1" as="geometry" />
        </mxCell>
        <mxCell id="6ellRIqbGZI2gtahciG1-174" value="第三方支付系统" style="text;html=1;align=center;verticalAlign=middle;resizable=0;points=[];autosize=1;strokeColor=none;fillColor=none;fontSize=28;fontColor=#000000;" vertex="1" parent="1">
          <mxGeometry x="1090" y="660" width="240" height="60" as="geometry" />
        </mxCell>
        <mxCell id="6ellRIqbGZI2gtahciG1-176" value="" style="endArrow=none;html=1;rounded=1;fontSize=28;fontColor=#000000;entryX=0.5;entryY=1;entryDx=0;entryDy=0;exitX=0.25;exitY=0;exitDx=0;exitDy=0;" edge="1" parent="1" source="6ellRIqbGZI2gtahciG1-69" target="6ellRIqbGZI2gtahciG1-166">
          <mxGeometry width="50" height="50" relative="1" as="geometry">
            <mxPoint x="1100" y="830" as="sourcePoint" />
            <mxPoint x="1150" y="780" as="targetPoint" />
          </mxGeometry>
        </mxCell>
        <mxCell id="6ellRIqbGZI2gtahciG1-177" value="" style="endArrow=none;html=1;rounded=1;fontSize=28;fontColor=#000000;entryX=0.5;entryY=1;entryDx=0;entryDy=0;exitX=0;exitY=0.5;exitDx=0;exitDy=0;" edge="1" parent="1" source="6ellRIqbGZI2gtahciG1-119" target="6ellRIqbGZI2gtahciG1-166">
          <mxGeometry width="50" height="50" relative="1" as="geometry">
            <mxPoint x="1047.5" y="1365" as="sourcePoint" />
            <mxPoint x="1220" y="740" as="targetPoint" />
          </mxGeometry>
        </mxCell>
        <mxCell id="6ellRIqbGZI2gtahciG1-178" value="派单司机上下文" style="text;html=1;align=center;verticalAlign=middle;resizable=0;points=[];autosize=1;strokeColor=none;fillColor=none;fontSize=28;fontColor=#000000;" vertex="1" parent="1">
          <mxGeometry x="1630" y="1780" width="240" height="60" as="geometry" />
        </mxCell>
        <mxCell id="6ellRIqbGZI2gtahciG1-179" value="" style="edgeStyle=orthogonalEdgeStyle;rounded=1;orthogonalLoop=1;jettySize=auto;html=1;fontSize=28;fontColor=#000000;" edge="1" parent="1" source="6ellRIqbGZI2gtahciG1-180" target="6ellRIqbGZI2gtahciG1-181">
          <mxGeometry relative="1" as="geometry" />
        </mxCell>
        <mxCell id="6ellRIqbGZI2gtahciG1-180" value="&amp;lt;Party&amp;gt;&lt;br&gt;&lt;br&gt;司机&lt;br&gt;" style="rounded=1;whiteSpace=wrap;html=1;fillColor=#60a917;fontColor=#ffffff;strokeColor=none;" vertex="1" parent="1">
          <mxGeometry x="1585" y="1845" width="70" height="60" as="geometry" />
        </mxCell>
        <mxCell id="6ellRIqbGZI2gtahciG1-181" value="&amp;lt;Contract&amp;gt;&lt;br&gt;&lt;br&gt;&lt;span id=&quot;docs-internal-guid-30c552a8-7fff-c146-13df-889dcf74978a&quot;&gt;&lt;span style=&quot;font-family: &amp;quot;Noto Sans SC&amp;quot;, sans-serif; background-color: transparent; font-variant-numeric: normal; font-variant-east-asian: normal; vertical-align: baseline;&quot;&gt;&lt;font style=&quot;font-size: 12px;&quot;&gt;司机载客合约&lt;br&gt;&lt;br&gt;&lt;/font&gt;&lt;/span&gt;&lt;/span&gt;" style="rounded=1;whiteSpace=wrap;html=1;fillColor=#d80073;fontColor=#ffffff;strokeColor=none;arcSize=12;" vertex="1" parent="1">
          <mxGeometry x="1560" y="1695" width="120" height="80" as="geometry" />
        </mxCell>
        <mxCell id="6ellRIqbGZI2gtahciG1-182" value="" style="edgeStyle=orthogonalEdgeStyle;rounded=1;orthogonalLoop=1;jettySize=auto;html=1;fontSize=28;fontColor=#000000;" edge="1" parent="1" source="6ellRIqbGZI2gtahciG1-183" target="6ellRIqbGZI2gtahciG1-181">
          <mxGeometry relative="1" as="geometry" />
        </mxCell>
        <mxCell id="6ellRIqbGZI2gtahciG1-183" value="&amp;lt;Proposal&amp;gt;&lt;br&gt;&lt;br&gt;&lt;span id=&quot;docs-internal-guid-30c552a8-7fff-c146-13df-889dcf74978a&quot;&gt;&lt;span style=&quot;font-family: &amp;quot;Noto Sans SC&amp;quot;, sans-serif; background-color: transparent; font-variant-numeric: normal; font-variant-east-asian: normal; vertical-align: baseline;&quot;&gt;&lt;font style=&quot;font-size: 12px;&quot;&gt;司机准入方案&lt;br&gt;&lt;/font&gt;&lt;/span&gt;&lt;/span&gt;" style="rounded=1;whiteSpace=wrap;html=1;fillColor=#d80073;fontColor=#ffffff;strokeColor=none;" vertex="1" parent="1">
          <mxGeometry x="1750" y="1705" width="120" height="60" as="geometry" />
        </mxCell>
        <mxCell id="6ellRIqbGZI2gtahciG1-184" value="" style="edgeStyle=orthogonalEdgeStyle;rounded=1;orthogonalLoop=1;jettySize=auto;html=1;fontSize=28;fontColor=#000000;" edge="1" parent="1" source="6ellRIqbGZI2gtahciG1-185" target="6ellRIqbGZI2gtahciG1-183">
          <mxGeometry relative="1" as="geometry" />
        </mxCell>
        <mxCell id="6ellRIqbGZI2gtahciG1-185" value="&amp;lt;rfp&amp;gt;&lt;br&gt;&lt;br&gt;&lt;span id=&quot;docs-internal-guid-30c552a8-7fff-c146-13df-889dcf74978a&quot;&gt;&lt;span style=&quot;font-family: &amp;quot;Noto Sans SC&amp;quot;, sans-serif; background-color: transparent; font-variant-numeric: normal; font-variant-east-asian: normal; vertical-align: baseline;&quot;&gt;&lt;font style=&quot;font-size: 12px;&quot;&gt;司机寻求注册准入&lt;br&gt;&lt;/font&gt;&lt;/span&gt;&lt;/span&gt;" style="rounded=1;whiteSpace=wrap;html=1;fillColor=#d80073;fontColor=#ffffff;strokeColor=none;" vertex="1" parent="1">
          <mxGeometry x="1930" y="1705" width="100" height="60" as="geometry" />
        </mxCell>
        <mxCell id="6ellRIqbGZI2gtahciG1-186" value="&amp;lt;Fulfillment&amp;gt;&lt;br&gt;&lt;br&gt;&lt;span id=&quot;docs-internal-guid-30c552a8-7fff-c146-13df-889dcf74978a&quot;&gt;&lt;span style=&quot;font-family: &amp;quot;Noto Sans SC&amp;quot;, sans-serif; background-color: transparent; font-variant-numeric: normal; font-variant-east-asian: normal; vertical-align: baseline;&quot;&gt;&lt;font style=&quot;font-size: 12px;&quot;&gt;取消派单请求&lt;br&gt;created_at&lt;br&gt;expired_at&lt;br&gt;&lt;/font&gt;&lt;/span&gt;&lt;/span&gt;" style="rounded=1;whiteSpace=wrap;html=1;fillColor=#d80073;fontColor=#ffffff;strokeColor=none;" vertex="1" parent="1">
          <mxGeometry x="1150" y="1685" width="90" height="90" as="geometry" />
        </mxCell>
        <mxCell id="6ellRIqbGZI2gtahciG1-187" value="&amp;lt;evidence&amp;gt;&lt;br&gt;&lt;br&gt;&lt;span id=&quot;docs-internal-guid-30c552a8-7fff-c146-13df-889dcf74978a&quot;&gt;&lt;span style=&quot;font-family: &amp;quot;Noto Sans SC&amp;quot;, sans-serif; background-color: transparent; font-variant-numeric: normal; font-variant-east-asian: normal; vertical-align: baseline;&quot;&gt;&lt;font style=&quot;font-size: 12px;&quot;&gt;取消派单确认&lt;br&gt;created_at&lt;br&gt;expired_at&lt;br&gt;&lt;/font&gt;&lt;/span&gt;&lt;/span&gt;" style="rounded=1;whiteSpace=wrap;html=1;fillColor=#d80073;fontColor=#ffffff;strokeColor=none;" vertex="1" parent="1">
          <mxGeometry x="1330" y="1685" width="110" height="90" as="geometry" />
        </mxCell>
        <mxCell id="6ellRIqbGZI2gtahciG1-188" value="" style="line;strokeWidth=2;html=1;rounded=1;fontSize=12;fontColor=#FFFFFF;fillColor=#589C15;" vertex="1" parent="1">
          <mxGeometry x="1240" y="1725" width="90" height="10" as="geometry" />
        </mxCell>
        <mxCell id="6ellRIqbGZI2gtahciG1-189" value="&lt;font color=&quot;#000000&quot;&gt;1&lt;/font&gt;" style="text;html=1;align=center;verticalAlign=middle;resizable=0;points=[];autosize=1;strokeColor=none;fillColor=none;fontSize=12;fontColor=#FFFFFF;" vertex="1" parent="1">
          <mxGeometry x="1245" y="1705" width="30" height="30" as="geometry" />
        </mxCell>
        <mxCell id="6ellRIqbGZI2gtahciG1-190" value="&lt;font color=&quot;#000000&quot;&gt;1&lt;/font&gt;" style="text;html=1;align=center;verticalAlign=middle;resizable=0;points=[];autosize=1;strokeColor=none;fillColor=none;fontSize=12;fontColor=#FFFFFF;" vertex="1" parent="1">
          <mxGeometry x="1290" y="1705" width="30" height="30" as="geometry" />
        </mxCell>
        <mxCell id="6ellRIqbGZI2gtahciG1-191" value="&amp;lt;Fulfillment&amp;gt;&lt;br&gt;&lt;br&gt;&lt;span id=&quot;docs-internal-guid-30c552a8-7fff-c146-13df-889dcf74978a&quot;&gt;&lt;span style=&quot;font-family: &amp;quot;Noto Sans SC&amp;quot;, sans-serif; background-color: transparent; font-variant-numeric: normal; font-variant-east-asian: normal; vertical-align: baseline;&quot;&gt;&lt;font style=&quot;font-size: 12px;&quot;&gt;派单请求&lt;br&gt;created_at&lt;br&gt;expired_at&lt;br&gt;&lt;/font&gt;&lt;/span&gt;&lt;/span&gt;" style="rounded=1;whiteSpace=wrap;html=1;fillColor=#d80073;fontColor=#ffffff;strokeColor=none;" vertex="1" parent="1">
          <mxGeometry x="1150" y="1560" width="100" height="90" as="geometry" />
        </mxCell>
        <mxCell id="6ellRIqbGZI2gtahciG1-192" value="&amp;lt;evidence&amp;gt;&lt;br&gt;&lt;br&gt;&lt;span id=&quot;docs-internal-guid-30c552a8-7fff-c146-13df-889dcf74978a&quot;&gt;&lt;span style=&quot;font-family: &amp;quot;Noto Sans SC&amp;quot;, sans-serif; background-color: transparent; font-variant-numeric: normal; font-variant-east-asian: normal; vertical-align: baseline;&quot;&gt;&lt;font style=&quot;font-size: 12px;&quot;&gt;派单确认&lt;br&gt;created_at&lt;br&gt;expired_at&lt;br&gt;&lt;/font&gt;&lt;/span&gt;&lt;/span&gt;" style="rounded=1;whiteSpace=wrap;html=1;fillColor=#d80073;fontColor=#ffffff;strokeColor=none;" vertex="1" parent="1">
          <mxGeometry x="1330" y="1560" width="120" height="90" as="geometry" />
        </mxCell>
        <mxCell id="6ellRIqbGZI2gtahciG1-193" value="" style="line;strokeWidth=2;html=1;rounded=1;fontSize=12;fontColor=#FFFFFF;fillColor=#589C15;" vertex="1" parent="1">
          <mxGeometry x="1250" y="1600" width="80" height="10" as="geometry" />
        </mxCell>
        <mxCell id="6ellRIqbGZI2gtahciG1-194" value="&lt;font color=&quot;#000000&quot;&gt;1&lt;/font&gt;" style="text;html=1;align=center;verticalAlign=middle;resizable=0;points=[];autosize=1;strokeColor=none;fillColor=none;fontSize=12;fontColor=#FFFFFF;" vertex="1" parent="1">
          <mxGeometry x="1245" y="1580" width="30" height="30" as="geometry" />
        </mxCell>
        <mxCell id="6ellRIqbGZI2gtahciG1-195" value="&lt;font color=&quot;#000000&quot;&gt;1&lt;/font&gt;" style="text;html=1;align=center;verticalAlign=middle;resizable=0;points=[];autosize=1;strokeColor=none;fillColor=none;fontSize=12;fontColor=#FFFFFF;" vertex="1" parent="1">
          <mxGeometry x="1290" y="1580" width="30" height="30" as="geometry" />
        </mxCell>
        <mxCell id="6ellRIqbGZI2gtahciG1-196" value="Driver" style="rounded=1;whiteSpace=wrap;html=1;fontSize=12;fontColor=#FFFFFF;fillColor=#f0a30a;strokeColor=none;" vertex="1" parent="1">
          <mxGeometry x="1200" y="1640" width="70" height="30" as="geometry" />
        </mxCell>
        <mxCell id="6ellRIqbGZI2gtahciG1-197" value="Driver" style="rounded=1;whiteSpace=wrap;html=1;fontSize=12;fontColor=#FFFFFF;fillColor=#f0a30a;strokeColor=none;" vertex="1" parent="1">
          <mxGeometry x="1410" y="1640" width="70" height="30" as="geometry" />
        </mxCell>
        <mxCell id="6ellRIqbGZI2gtahciG1-198" value="Driver" style="rounded=1;whiteSpace=wrap;html=1;fontSize=12;fontColor=#FFFFFF;fillColor=#f0a30a;strokeColor=none;" vertex="1" parent="1">
          <mxGeometry x="1200" y="1770" width="70" height="30" as="geometry" />
        </mxCell>
        <mxCell id="6ellRIqbGZI2gtahciG1-199" value="Driver" style="rounded=1;whiteSpace=wrap;html=1;fontSize=12;fontColor=#FFFFFF;fillColor=#f0a30a;strokeColor=none;" vertex="1" parent="1">
          <mxGeometry x="1410" y="1770" width="70" height="30" as="geometry" />
        </mxCell>
        <mxCell id="6ellRIqbGZI2gtahciG1-200" value="&amp;lt;Fulfillment&amp;gt;&lt;br&gt;&lt;br&gt;&lt;span id=&quot;docs-internal-guid-30c552a8-7fff-c146-13df-889dcf74978a&quot;&gt;&lt;span style=&quot;font-family: &amp;quot;Noto Sans SC&amp;quot;, sans-serif; background-color: transparent; font-variant-numeric: normal; font-variant-east-asian: normal; vertical-align: baseline;&quot;&gt;&lt;font style=&quot;font-size: 12px;&quot;&gt;提现请求&lt;br&gt;created_at&lt;br&gt;expired_at&lt;br&gt;&lt;/font&gt;&lt;/span&gt;&lt;/span&gt;" style="rounded=1;whiteSpace=wrap;html=1;fillColor=#d80073;fontColor=#ffffff;strokeColor=none;" vertex="1" parent="1">
          <mxGeometry x="1150" y="1840" width="90" height="90" as="geometry" />
        </mxCell>
        <mxCell id="6ellRIqbGZI2gtahciG1-201" value="&amp;lt;evidence&amp;gt;&lt;br&gt;&lt;br&gt;&lt;span id=&quot;docs-internal-guid-30c552a8-7fff-c146-13df-889dcf74978a&quot;&gt;&lt;span style=&quot;font-family: &amp;quot;Noto Sans SC&amp;quot;, sans-serif; background-color: transparent; font-variant-numeric: normal; font-variant-east-asian: normal; vertical-align: baseline;&quot;&gt;&lt;font style=&quot;font-size: 12px;&quot;&gt;提现确认&lt;br&gt;created_at&lt;br&gt;expired_at&lt;br&gt;&lt;/font&gt;&lt;/span&gt;&lt;/span&gt;" style="rounded=1;whiteSpace=wrap;html=1;fillColor=#d80073;fontColor=#ffffff;strokeColor=none;" vertex="1" parent="1">
          <mxGeometry x="1330" y="1840" width="110" height="90" as="geometry" />
        </mxCell>
        <mxCell id="6ellRIqbGZI2gtahciG1-202" value="" style="line;strokeWidth=2;html=1;rounded=1;fontSize=12;fontColor=#FFFFFF;fillColor=#589C15;" vertex="1" parent="1">
          <mxGeometry x="1240" y="1880" width="90" height="10" as="geometry" />
        </mxCell>
        <mxCell id="6ellRIqbGZI2gtahciG1-203" value="&lt;font color=&quot;#000000&quot;&gt;1&lt;/font&gt;" style="text;html=1;align=center;verticalAlign=middle;resizable=0;points=[];autosize=1;strokeColor=none;fillColor=none;fontSize=12;fontColor=#FFFFFF;" vertex="1" parent="1">
          <mxGeometry x="1245" y="1860" width="30" height="30" as="geometry" />
        </mxCell>
        <mxCell id="6ellRIqbGZI2gtahciG1-204" value="&lt;font color=&quot;#000000&quot;&gt;1&lt;/font&gt;" style="text;html=1;align=center;verticalAlign=middle;resizable=0;points=[];autosize=1;strokeColor=none;fillColor=none;fontSize=12;fontColor=#FFFFFF;" vertex="1" parent="1">
          <mxGeometry x="1290" y="1860" width="30" height="30" as="geometry" />
        </mxCell>
        <mxCell id="6ellRIqbGZI2gtahciG1-205" value="Driver" style="rounded=1;whiteSpace=wrap;html=1;fontSize=12;fontColor=#FFFFFF;fillColor=#f0a30a;strokeColor=none;" vertex="1" parent="1">
          <mxGeometry x="1200" y="1925" width="70" height="30" as="geometry" />
        </mxCell>
        <mxCell id="6ellRIqbGZI2gtahciG1-206" value="Driver" style="rounded=1;whiteSpace=wrap;html=1;fontSize=12;fontColor=#FFFFFF;fillColor=#f0a30a;strokeColor=none;" vertex="1" parent="1">
          <mxGeometry x="1410" y="1920" width="70" height="30" as="geometry" />
        </mxCell>
        <mxCell id="6ellRIqbGZI2gtahciG1-207" value="" style="endArrow=none;html=1;rounded=1;fontSize=28;fontColor=#000000;entryX=0.129;entryY=0.023;entryDx=0;entryDy=0;exitX=1;exitY=0.5;exitDx=0;exitDy=0;entryPerimeter=0;" edge="1" parent="1" source="6ellRIqbGZI2gtahciG1-192" target="6ellRIqbGZI2gtahciG1-181">
          <mxGeometry width="50" height="50" relative="1" as="geometry">
            <mxPoint x="1420" y="1610" as="sourcePoint" />
            <mxPoint x="1470" y="1560" as="targetPoint" />
          </mxGeometry>
        </mxCell>
        <mxCell id="6ellRIqbGZI2gtahciG1-210" value="" style="endArrow=none;html=1;rounded=1;fontSize=28;fontColor=#000000;entryX=0;entryY=0.5;entryDx=0;entryDy=0;" edge="1" parent="1" target="6ellRIqbGZI2gtahciG1-181">
          <mxGeometry width="50" height="50" relative="1" as="geometry">
            <mxPoint x="1440" y="1740" as="sourcePoint" />
            <mxPoint x="1580.0000000000005" y="1715" as="targetPoint" />
          </mxGeometry>
        </mxCell>
        <mxCell id="6ellRIqbGZI2gtahciG1-211" value="" style="endArrow=none;html=1;rounded=1;fontSize=28;fontColor=#000000;exitX=1;exitY=0.5;exitDx=0;exitDy=0;" edge="1" parent="1" source="6ellRIqbGZI2gtahciG1-201">
          <mxGeometry width="50" height="50" relative="1" as="geometry">
            <mxPoint x="1460.0000000000005" y="1760" as="sourcePoint" />
            <mxPoint x="1560" y="1760" as="targetPoint" />
          </mxGeometry>
        </mxCell>
      </root>
    </mxGraphModel>
  </diagram>
</mxfile>
